<?xml version="1.0" encoding="UTF-8"?>
<svg version="1.1" xmlns="http://www.w3.org/2000/svg" width="225" height="225">
<path d="M0 0 C74.25 0 148.5 0 225 0 C225 74.25 225 148.5 225 225 C150.75 225 76.5 225 0 225 C0 150.75 0 76.5 0 0 Z " fill="#FEFEFE" transform="translate(0,0)"/>
<path d="M0 0 C34.98 0 69.96 0 106 0 C106 20.46 106 40.92 106 62 C102.11562072 61.02890518 99.27439922 59.71674424 95.73828125 57.875 C95.1470195 57.56804199 94.55575775 57.26108398 93.94657898 56.94482422 C92.70252099 56.29789721 91.45952244 55.64892926 90.2175293 54.99804688 C88.31087166 53.99914691 86.40087118 53.00688899 84.49023438 52.015625 C75.15129083 47.15129083 75.15129083 47.15129083 74 46 C73.91224395 43.85441173 73.89304781 41.70595579 73.90234375 39.55859375 C73.90717773 37.60083008 73.90717773 37.60083008 73.91210938 35.60351562 C73.92046599 34.2148431 73.92893095 32.82617123 73.9375 31.4375 C73.94251334 30.04492344 73.94707653 28.65234519 73.95117188 27.25976562 C73.96300566 23.8398013 73.9794912 20.41992156 74 17 C72.75202637 17.0628418 71.50405273 17.12568359 70.21826172 17.19042969 C25.31414329 19.25711454 25.31414329 19.25711454 8.91503906 6.45507812 C6.10204397 4.31771827 3.10049099 2.68522729 0 1 C0 0.67 0 0.34 0 0 Z " fill="#6C43CD" transform="translate(64,117)"/>
<path d="M0 0 C4.56538548 1.52179516 8.11714916 2.99448717 12.2734375 5.2578125 C13.31419434 5.82129395 14.35495117 6.38477539 15.42724609 6.96533203 C16.73000488 7.67802246 18.03276367 8.39071289 19.375 9.125 C25.624375 12.528125 25.624375 12.528125 32 16 C32 25.57 32 35.14 32 45 C34.75601563 44.814375 37.51203125 44.62875 40.3515625 44.4375 C66.10742353 43.10377089 83.80747462 45.97416232 105 61 C105 61.33 105 61.66 105 62 C70.35 62 35.7 62 0 62 C0 41.54 0 21.08 0 0 Z " fill="#6C44CD" transform="translate(55,46)"/>
<path d="M0 0 C4.3134396 1.33982331 8.24341509 3.00410069 12.2734375 5.0390625 C13.83457275 5.82337646 13.83457275 5.82337646 15.42724609 6.62353516 C16.73000488 7.28401855 18.03276367 7.94450195 19.375 8.625 C23.54125 10.72875 27.7075 12.8325 32 15 C32 29.19 32 43.38 32 58 C28.7 56.35 25.4 54.7 22 53 C20.0847253 52.31626976 18.15693204 51.66487048 16.2109375 51.07421875 C9.61344053 48.56991011 3.93635042 46.0872985 0 40 C-3.5218794 27.46688769 -1.28563732 12.7619733 0 0 Z " fill="#6C44CD" transform="translate(138,46)"/>
<path d="M0 0 C4.01955795 1.60782318 7.41967239 3.2878723 11.140625 5.44140625 C11.70827576 5.76914536 12.27592651 6.09688446 12.86077881 6.43455505 C14.05165144 7.12300971 15.24160078 7.8130637 16.43066406 8.50463867 C18.25628193 9.56615266 20.08491123 10.62232291 21.9140625 11.67773438 C30.85086462 16.85086462 30.85086462 16.85086462 32 18 C32.08865208 20.8843382 32.11521296 23.74462158 32.09765625 26.62890625 C32.0962413 27.49313705 32.09482635 28.35736786 32.09336853 29.24778748 C32.08775239 32.01939292 32.07519719 34.7909188 32.0625 37.5625 C32.05748708 39.4368478 32.05292381 41.31119685 32.04882812 43.18554688 C32.03777772 47.79039544 32.0205023 52.39518421 32 57 C28.32097999 55.83653511 24.91013431 54.56974136 21.50390625 52.7578125 C20.69759766 52.33113281 19.89128906 51.90445313 19.06054688 51.46484375 C18.23619141 51.02269531 17.41183594 50.58054688 16.5625 50.125 C15.74201172 49.69058594 14.92152344 49.25617188 14.07617188 48.80859375 C9.32992071 46.28584572 4.67095822 43.66911898 0 41 C0 27.47 0 13.94 0 0 Z " fill="#6E46CE" transform="translate(55,122)"/>
</svg>
